HIERARCHY
ROOT Hips
{
	OFFSET 0.000000 0.000000 0.000000 
	CHANNELS 6 Xposition Yposition Zposition Yrotation Zrotation Xrotation 
	JOINT Lumbar
	{
		OFFSET 0.000000 0.000000 0.000000 
		CHANNELS 3 Zrotation Xrotation Yrotation
		JOINT Neck
		{
			OFFSET 0.000000 0.445665 0.000000 
			CHANNELS 3 Zrotation Xrotation Yrotation
			End Site
			{
				OFFSET 0.000000 0.227535 0.000000 
			}
		}
		JOINT RightShoulder
		{
			OFFSET 0.019635 0.377685 0.194865 
			CHANNELS 3 Zrotation Xrotation Yrotation
			JOINT RightElbow
			{
				OFFSET 0.000000 -0.243375 0.000000 
				CHANNELS 2 Zrotation Yrotation
				JOINT RightWrist
				{
					OFFSET 0.000000 -0.264825 0.000000 
					CHANNELS 2 Zrotation Xrotation
					End Site
					{
						OFFSET 0.006600 -0.176220 0.000990 
					}
				}
			}
		}
		JOINT LeftShoulder
		{
			OFFSET 0.019635 0.377685 -0.194865 
			CHANNELS 3 Zrotation Xrotation Yrotation
			JOINT LeftElbow
			{
				OFFSET 0.000000 -0.243375 0.000000 
				CHANNELS 2 Zrotation Yrotation
				JOINT LeftWrist
				{
					OFFSET 0.000000 -0.264825 0.000000 
					CHANNELS 2 Zrotation Xrotation
					End Site
					{
						OFFSET 0.006600 -0.176220 -0.000990 
					}
				}
			}
		}
	}
	JOINT RightHip
	{
		OFFSET 0.052140 -0.069960 0.075570 
		CHANNELS 3 Zrotation Xrotation Yrotation
		JOINT RightKnee
		{
			OFFSET 0.000000 -0.402270 0.000000 
			CHANNELS 1 Zrotation
			JOINT RightAnkle
			{
				OFFSET 0.000000 -0.404085 0.000000 
				CHANNELS 3 Zrotation Xrotation Yrotation
				End Site
				{
					OFFSET 0.204105 -0.089430 0.008415 
				}
			}
		}
	}
	JOINT LeftHip
	{
		OFFSET 0.052140 -0.069960 -0.075570 
		CHANNELS 3 Zrotation Xrotation Yrotation
		JOINT LeftKnee
		{
			OFFSET 0.000000 -0.402270 0.000000 
			CHANNELS 1 Zrotation
			JOINT LeftAnkle
			{
				OFFSET 0.000000 -0.404085 0.000000 
				CHANNELS 3 Zrotation Xrotation Yrotation
				End Site
				{
					OFFSET 0.204105 -0.089430 -0.008415 
				}
			}
		}
	}
}
MOTION
Frames: 26
Frame Time: 0.02
-0 0.95578 0 177.21163 0 3.01598 11.36123 0.55891 2.03683 -37.63591 -3.36931 -3.81111 29.49959 -4.48667 -9.52897 9.23342 83.41532 0.41589 -0.1346 28.22742 13.07257 2.48838 8.0644 -71.78099 -5.12494 -2.67119 2.00668 1.53122 16.13756 -20.78286 10.77149 -9.82578 -14.26569 0.88717 -4.01111 -7.00321 -16.09133 7.69103 7.78355 13.6746
0.00121 0.95577 -0.00022 177.2992 0 3.05395 11.29516 0.4927 1.80405 -37.30251 -3.04405 -3.34145 29.21435 -5.057 -8.49676 9.09594 83.44906 0.4622 0.12424 28.18109 12.60042 2.40054 8.08979 -71.8496 -5.20274 -2.26714 2.07278 1.52488 16.16742 -20.81041 10.7731 -9.81415 -14.35825 0.92395 -4.01963 -7.01991 -15.98883 7.63078 7.75767 13.60928
0.00242 0.95575 -0.00043 177.38716 0 3.09173 11.22883 0.42666 1.57297 -36.97001 -2.71906 -2.87398 28.92958 -5.62551 -7.47093 8.95966 83.48254 0.50834 0.38172 28.13444 12.12876 2.31605 8.11456 -71.91804 -5.2795 -1.86631 2.13903 1.51856 16.19609 -20.83833 10.77478 -9.80264 -14.45023 0.96134 -4.02823 -7.03763 -15.88768 7.57085 7.73193 13.54459
0.00364 0.95574 -0.00064 177.47715 0 3.12887 11.16045 0.36071 1.34692 -36.63512 -2.39107 -2.41062 28.64098 -6.19292 -6.46044 8.82662 83.51574 0.55458 0.63668 28.08427 11.6539 2.24783 8.13697 -71.98626 -5.35293 -1.47408 2.20613 1.51237 16.22017 -20.86727 10.77665 -9.79143 -14.54045 1.00149 -4.03704 -7.05916 -15.79111 7.51178 7.7067 13.4817
0.00482 0.95572 -0.00088 177.55594 0 3.16908 11.10248 0.29436 1.09482 -36.30955 -2.07788 -1.92548 28.36912 -6.76692 -5.36856 8.67612 83.55093 0.6007 0.90549 28.05054 11.19528 2.09785 8.17174 -72.05538 -5.44406 -1.03592 2.26829 1.50561 16.26843 -20.88995 10.7774 -9.77859 -14.63955 1.02697 -4.04451 -7.06002 -15.67048 7.44831 7.67899 13.4092
0.00607 0.95571 -0.00107 177.65864 0 3.20296 11.02285 0.22886 0.89769 -35.96686 -1.73444 -1.4869 28.06453 -7.32589 -4.45001 8.5629 83.58154 0.64675 1.14439 27.98359 10.70325 2.11793 8.18041 -72.12268 -5.49766 -0.69557 2.3411 1.49999 16.26561 -20.92644 10.7806 -9.76924 -14.72007 1.08347 -4.05499 -7.10493 -15.60073 7.3941 7.6564 13.35714
0.00751 0.95568 -0.00112 177.83022 0 3.21808 10.87639 0.16457 0.85561 -35.54713 -1.28859 -1.16887 27.638 -7.86208 -4.00096 8.55176 83.60275 0.6964 1.30712 27.80741 10.09763 2.65231 8.11377 -72.18533 -5.4452 -0.6239 2.44419 1.49818 16.11521 -20.99826 10.79011 -9.76914 -14.74718 1.23025 -4.07276 -7.27425 -15.67585 7.36594 7.64932 13.36175
0.00899 0.95565 -0.00114 178.0256 0 3.22705 10.70924 0.10125 0.86833 -35.11551 -0.81516 -0.89878 27.1841 -8.38042 -3.72786 8.57842 83.61881 0.74537 1.43863 27.60108 9.46142 3.3515 8.02121 -72.24605 -5.35517 -0.65122 2.55795 1.49741 15.91419 -21.08453 10.80219 -9.77262 -14.75592 1.40766 -4.09374 -7.48766 -15.80166 7.34704 7.64719 13.3869
0.01044 0.95562 -0.00117 178.20849 0 3.23973 10.55582 0.03814 0.85386 -34.70771 -0.36611 -0.61185 26.76227 -8.89519 -3.37991 8.58836 83.63507 0.79221 1.58049 27.41921 8.85239 3.94596 7.94262 -72.30758 -5.28393 -0.63398 2.66645 1.49571 15.74045 -21.16616 10.81342 -9.7747 -14.77449 1.5682 -4.11401 -7.6794 -15.9015 7.32355 7.64182 13.40257
0.01197 0.95559 -0.00121 178.3985 0 3.24861 10.38385 -0.02766 0.84922 -34.22069 0.13274 -0.30492 26.25625 -9.45846 -3.01133 8.59639 83.66014 0.8492 1.73863 27.19042 8.18775 4.66323 7.85513 -72.36972 -5.20576 -0.6146 2.77681 1.49588 15.54897 -21.23991 10.82335 -9.77583 -14.78694 1.74115 -4.13128 -7.87824 -16.01356 7.30159 7.64041 13.4191
0.01333 0.95556 -0.00123 178.57925 0 3.26384 10.24595 -0.08765 0.8369 -33.89781 0.5346 -0.04998 25.92083 -9.91739 -2.72644 8.61736 83.6659 0.88508 1.85532 27.05413 7.63126 5.16767 7.7796 -72.42971 -5.13272 -0.62362 2.88566 1.4925 15.38206 -21.33316 10.83656 -9.77976 -14.8076 1.89555 -4.15535 -8.07246 -16.11243 7.27877 7.6322 13.43838
0.01418 0.95552 -0.00126 178.72953 0 3.29922 10.20444 -0.13172 0.79193 -34.01476 0.66059 0.06389 26.04854 -10.08488 -2.63864 8.66506 83.61733 0.86119 1.86654 27.16466 7.38419 5.01083 7.74709 -72.48813 -5.08635 -0.68288 2.98937 1.47814 15.29846 -21.48016 10.85866 -9.79079 -14.85713 1.99117 -4.19926 -8.24608 -16.16075 7.25011 7.60165 13.46308
0.01485 0.95548 -0.00128 178.86962 0 3.34102 10.19855 -0.17005 0.73711 -34.30081 0.68835 0.12864 26.35196 -10.14937 -2.6274 8.72445 83.54986 0.81642 1.83698 27.3727 7.24643 4.63977 7.72695 -72.54388 -5.04592 -0.76784 3.09091 1.46035 15.24074 -21.64588 10.88397 -9.80451 -14.91531 2.06716 -4.24961 -8.41315 -16.19455 7.22054 7.56451 13.48935
0.0156 0.95545 -0.00131 179.01359 0 3.37914 10.17798 -0.21105 0.68534 -34.51957 0.76183 0.22216 26.58405 -10.26613 -2.57501 8.77827 83.4926 0.78226 1.82509 27.54604 7.05637 4.38936 7.69858 -72.59814 -5.00049 -0.84386 3.19232 1.44471 15.16916 -21.80048 10.90744 -9.81676 -14.96838 2.15213 -4.29577 -8.58107 -16.23588 7.19207 7.53194 13.51294
0.01637 0.9554 -0.00132 179.16104 0 3.42018 10.1498 -0.25159 0.64093 -34.69566 0.83136 0.28752 26.77772 -10.35945 -2.55514 8.83437 83.42857 0.74326 1.81531 27.67608 6.87611 4.04874 7.67976 -72.66317 -4.9631 -0.91253 3.29868 1.42656 15.10469 -21.96566 10.93232 -9.82998 -15.02555 2.23767 -4.34723 -8.75883 -16.27431 7.16076 7.49292 13.5453
0.01705 0.95537 -0.00137 179.29917 0 3.45685 10.14686 -0.29195 0.57885 -35.00333 0.88586 0.39957 27.09536 -10.47709 -2.48402 8.88816 83.37393 0.70951 1.79242 27.92197 6.70203 3.84001 7.64502 -72.70585 -4.91132 -1.00038 3.39424 1.41289 15.03218 -22.11423 10.95535 -9.842 -15.07678 2.31724 -4.38934 -8.91484 -16.31562 7.13536 7.46566 13.55983
0.01755 0.95538 -0.00153 179.40808 0 3.47896 10.19974 -0.33139 0.46393 -35.61342 0.91856 0.6604 27.69756 -10.68899 -2.24739 8.9312 83.35241 0.69442 1.73849 28.44704 6.51687 4.07308 7.55766 -72.6815 -4.81437 -1.14251 3.45884 1.41171 14.9315 -22.20171 10.96921 -9.84826 -15.10672 2.38229 -4.40201 -9.00391 -16.35918 7.12349 7.473 13.52116
0.01796 0.9554 -0.00173 179.50889 0 3.49665 10.27804 -0.37112 0.33254 -36.35437 0.9399 0.9685 28.42196 -10.92826 -1.95707 8.97157 83.34057 0.6855 1.6737 29.08923 6.3349 4.44095 7.45507 -72.63589 -4.70364 -1.30117 3.5127 1.41526 14.82175 -22.27328 10.98162 -9.85356 -15.13082 2.44214 -4.40525 -9.07222 -16.40714 7.11806 7.49225 13.46457
0.01838 0.95541 -0.00191 179.61724 0 3.51703 10.34801 -0.41201 0.21257 -37.04754 0.96948 1.25033 29.09943 -11.15433 -1.69334 9.01402 83.32259 0.67444 1.61736 29.6883 6.15215 4.72953 7.36324 -72.60392 -4.60201 -1.4467 3.5728 1.41718 14.7165 -22.35967 10.9969 -9.86049 -15.15972 2.50636 -4.41435 -9.15597 -16.45947 7.11163 7.50577 13.41905
0.01892 0.95545 -0.00207 179.70916 0 3.5348 10.40493 -0.44752 0.07544 -37.69486 0.98385 1.55141 29.74411 -11.38161 -1.42138 9.05342 83.31115 0.65999 1.54526 30.24573 5.96904 5.08606 7.25549 -72.55497 -4.4886 -1.61673 3.62801 1.41697 14.61165 -22.41664 11.00322 -9.86244 -15.18059 2.56239 -4.41774 -9.21605 -16.4863 7.0972 7.52063 13.36328
0.0192 0.95543 -0.0023 179.83326 0 3.5568 10.49543 -0.49403 -0.02944 -38.46954 1.02699 1.82328 30.48703 -11.61219 -1.155 9.09816 83.28884 0.65418 1.50329 30.9194 5.78768 5.33682 7.1773 -72.53646 -4.39632 -1.73952 3.68976 1.42214 14.50209 -22.52838 11.02749 -9.87451 -15.21575 2.6333 -4.42984 -9.3182 -16.56514 7.10075 7.53533 13.32204
0.01883 0.95525 -0.00273 180.05097 0 3.59228 10.66414 -0.57405 -0.04388 -39.53238 1.16532 2.011 31.43787 -11.86229 -0.89792 9.16021 83.23266 0.67216 1.55291 31.85457 5.59654 5.25367 7.18314 -72.6066 -4.36659 -1.72564 3.782 1.44283 14.39349 -22.81651 11.10431 -9.91454 -15.29994 2.75709 -4.47551 -9.56267 -16.80637 7.15422 7.54886 13.347
0.01821 0.95502 -0.00324 180.30131 0 3.63204 10.86628 -0.66462 -0.02478 -40.72007 1.33098 2.16602 32.48501 -12.11163 -0.6517 9.22739 83.16576 0.69848 1.63227 32.90445 5.40962 5.06133 7.21968 -72.70833 -4.35852 -1.66377 3.87955 1.46848 14.27805 -23.15632 11.19865 -9.96468 -15.39734 2.89438 -4.5289 -9.84671 -17.09607 7.22507 7.56126 13.38315
0.01769 0.95481 -0.00372 180.5344 0 3.66928 11.05946 -0.74823 -0.01925 -41.8753 1.47626 2.33142 33.51379 -12.35116 -0.4124 9.29083 83.10463 0.72012 1.6946 33.92601 5.2286 4.92686 7.24264 -72.79585 -4.33981 -1.62535 3.96806 1.49062 14.15803 -23.45831 11.28335 -10.01048 -15.48308 3.01844 -4.57399 -10.09827 -17.35073 7.28695 7.57301 13.39998
0.01722 0.95458 -0.00416 180.77568 0 3.70865 11.23076 -0.84078 -0.02128 -42.94849 1.6551 2.51896 34.45486 -12.63628 -0.1203 9.35983 83.03931 0.74564 1.77179 34.86559 5.01254 4.7654 7.26246 -72.88154 -4.32351 -1.5812 4.0835 1.51805 14.07057 -23.81993 11.37544 -10.0557 -15.59174 3.17139 -4.63896 -10.40851 -17.66079 7.35423 7.59083 13.47631
0.01661 0.9544 -0.00472 181.00996 0 3.74483 11.45081 -0.91747 0.0005 -44.20068 1.77014 2.65004 35.58084 -12.82361 0.05739 9.41888 82.98096 0.76508 1.82472 35.98354 4.87317 4.62843 7.29763 -72.9794 -4.30811 -1.53663 4.1451 1.53578 13.91329 -24.07026 11.45585 -10.10388 -15.65682 3.26852 -4.66453 -10.60845 -17.86651 7.41346 7.59461 13.43158
